<svg width="150" height="186" viewBox="0 0 150 186" fill="none" xmlns="http://www.w3.org/2000/svg">
<rect x="7" width="136" height="136" rx="68" fill="#F2F4F8"/>
<path d="M64.3328 32.3197C64.1512 27.7797 67.7827 24 72.3264 24H77.6736C82.2173 24 85.8488 27.7797 85.6672 32.3197L83.6672 82.3197C83.4956 86.6102 79.9675 90 75.6736 90H74.3264C70.0325 90 66.5044 86.6102 66.3328 82.3197L64.3328 32.3197Z" fill="white"/>
<rect x="66" y="98" width="18" height="14" rx="7" fill="white"/>
<path d="M6.40137 167.697C6.40137 168.383 6.55957 169.042 6.87598 169.675C7.19824 170.302 7.64941 170.858 8.22949 171.345C8.80957 171.831 9.4834 172.209 10.251 172.479L9.54785 173.551C8.66309 173.234 7.88965 172.771 7.22754 172.162C6.56543 171.547 6.06738 170.835 5.7334 170.026C5.39941 170.905 4.88965 171.679 4.2041 172.347C3.51855 173.009 2.71582 173.51 1.7959 173.85L1.05762 172.777C1.83105 172.502 2.51953 172.106 3.12305 171.591C3.72656 171.075 4.19531 170.48 4.5293 169.807C4.86914 169.133 5.04199 168.43 5.04785 167.697V167.029H1.47949V165.904H9.91699V167.029H6.40137V167.697ZM13.3271 168.928H15.6826V170.105H13.3271V174.219H11.9561V164.797H13.3271V168.928ZM13.3271 180.424H11.9561V176.17H3.09668V175.045H13.3271V180.424ZM22.0459 167.258C22.04 167.99 22.1982 168.69 22.5205 169.358C22.8428 170.021 23.2969 170.601 23.8828 171.099C24.4746 171.597 25.1514 171.975 25.9131 172.232L25.1396 173.305C24.2725 172.977 23.5137 172.505 22.8633 171.89C22.2129 171.274 21.7207 170.557 21.3867 169.736C21.0527 170.674 20.54 171.494 19.8486 172.197C19.1572 172.895 18.3428 173.422 17.4053 173.779L16.6494 172.654C17.4463 172.373 18.1465 171.969 18.75 171.441C19.3594 170.908 19.8311 170.287 20.165 169.578C20.499 168.863 20.6689 168.107 20.6748 167.311V165.693H22.0459V167.258ZM29.6221 174.061H28.2334V169.297H24.7529V168.154H28.2334V164.797H29.6221V174.061ZM24.4365 174.518C25.5205 174.518 26.4551 174.635 27.2402 174.869C28.0254 175.098 28.626 175.435 29.042 175.88C29.4639 176.319 29.6748 176.85 29.6748 177.471C29.6748 178.086 29.4639 178.61 29.042 179.044C28.626 179.483 28.0254 179.817 27.2402 180.046C26.4551 180.274 25.5205 180.389 24.4365 180.389C23.3525 180.389 22.418 180.274 21.6328 180.046C20.8477 179.817 20.2441 179.483 19.8223 179.044C19.4062 178.61 19.1982 178.086 19.1982 177.471C19.1982 176.85 19.4062 176.319 19.8223 175.88C20.2441 175.435 20.8477 175.098 21.6328 174.869C22.418 174.635 23.3525 174.518 24.4365 174.518ZM24.4365 175.607C23.6455 175.607 22.957 175.684 22.3711 175.836C21.7852 175.982 21.3369 176.196 21.0264 176.478C20.7158 176.759 20.5635 177.09 20.5693 177.471C20.5635 177.84 20.7158 178.162 21.0264 178.438C21.3369 178.707 21.7852 178.915 22.3711 179.062C22.957 179.208 23.6455 179.281 24.4365 179.281C25.2275 179.281 25.9131 179.208 26.4932 179.062C27.0791 178.915 27.5273 178.707 27.8379 178.438C28.1484 178.162 28.3037 177.84 28.3037 177.471C28.3037 177.09 28.1484 176.759 27.8379 176.478C27.5273 176.196 27.0791 175.982 26.4932 175.836C25.9131 175.684 25.2275 175.607 24.4365 175.607ZM41.3115 171.055H38.1475V173.243C39.7178 173.167 41.1416 173.059 42.4189 172.918L42.5244 173.938C39.7705 174.312 36.4307 174.5 32.5049 174.5L32.2939 173.375C34.0459 173.363 35.54 173.337 36.7764 173.296V171.055H33.7178V165.816H41.1885V166.959H35.1064V169.93H41.3115V171.055ZM45.1084 176.504H43.7197V164.814H45.1084V176.504ZM45.6182 180.09H34.9658V175.695H36.3369V178.93H45.6182V180.09ZM65.2002 180.459H63.8291V164.797H65.2002V180.459ZM60.4541 171.811H54.6182V175.502C56.0186 175.502 57.3193 175.461 58.5205 175.379C59.7275 175.297 60.9932 175.15 62.3174 174.939L62.458 176.1C61.1045 176.316 59.8096 176.466 58.5732 176.548C57.3369 176.624 55.9834 176.662 54.5127 176.662H53.2119V170.686H59.0654V167.398H53.1768V166.256H60.4541V171.811ZM82.1455 175.08H78.4893V180.424H77.1182V175.08H72.8643V180.424H71.458V175.08H67.8369V173.92H82.1455V175.08ZM71.0361 167.557H78.9111V165.43H80.2998V172.074H69.665V165.43H71.0361V167.557ZM78.9111 170.949V168.664H71.0361V170.949H78.9111ZM95.5049 171.16H98.0361V172.32H95.5049V180.424H94.1338V164.797H95.5049V171.16ZM91.4619 166.484C91.4619 168.811 90.8789 170.92 89.7129 172.812C88.5469 174.699 86.7393 176.246 84.29 177.453L83.5166 176.363C85.5264 175.361 87.082 174.125 88.1836 172.654C89.2852 171.178 89.915 169.508 90.0732 167.645H84.2373V166.484H91.4619ZM106.597 175.924H109.444V173.973H110.728V180.213H105.296V173.973H106.597V175.924ZM109.444 179.123V176.979H106.597V179.123H109.444ZM115.192 175.203C115.187 175.766 115.292 176.316 115.509 176.855C115.731 177.389 116.06 177.869 116.493 178.297C116.933 178.725 117.46 179.053 118.075 179.281L117.354 180.336C116.657 180.055 116.065 179.656 115.579 179.141C115.099 178.625 114.735 178.03 114.489 177.356C114.231 178.019 113.862 178.607 113.382 179.123C112.901 179.645 112.327 180.049 111.659 180.336L110.938 179.281C111.548 179.029 112.069 178.687 112.503 178.253C112.937 177.819 113.265 177.339 113.487 176.812C113.71 176.278 113.821 175.742 113.821 175.203V173.867H115.192V175.203ZM107.792 165.5C108.483 165.5 109.113 165.623 109.682 165.869C110.25 166.115 110.716 166.467 111.079 166.924C111.448 167.375 111.683 167.896 111.782 168.488H115.052V164.797H116.44V173.076H115.052V169.631H111.791C111.703 170.24 111.475 170.776 111.105 171.239C110.742 171.702 110.273 172.06 109.699 172.312C109.125 172.563 108.489 172.689 107.792 172.689C107.007 172.689 106.307 172.54 105.691 172.241C105.076 171.937 104.596 171.512 104.25 170.967C103.904 170.416 103.731 169.789 103.731 169.086C103.731 168.389 103.904 167.768 104.25 167.223C104.596 166.678 105.076 166.256 105.691 165.957C106.307 165.652 107.007 165.5 107.792 165.5ZM107.792 166.66C107.265 166.66 106.793 166.763 106.377 166.968C105.961 167.173 105.636 167.46 105.401 167.829C105.167 168.198 105.05 168.617 105.05 169.086C105.05 169.561 105.167 169.985 105.401 170.36C105.636 170.729 105.961 171.02 106.377 171.23C106.793 171.441 107.265 171.547 107.792 171.547C108.313 171.547 108.779 171.441 109.189 171.23C109.6 171.02 109.919 170.729 110.147 170.36C110.382 169.985 110.499 169.561 110.499 169.086C110.499 168.617 110.382 168.198 110.147 167.829C109.919 167.46 109.6 167.173 109.189 166.968C108.779 166.763 108.313 166.66 107.792 166.66ZM123.243 166.01C123.946 166.016 124.576 166.212 125.133 166.599C125.695 166.985 126.149 167.536 126.495 168.251C126.841 168.966 127.049 169.807 127.119 170.773H130.626V164.797H131.997V180.459H130.626V171.916H127.137C127.084 172.924 126.888 173.803 126.548 174.553C126.208 175.303 125.751 175.88 125.177 176.284C124.608 176.688 123.964 176.891 123.243 176.891C122.481 176.891 121.802 176.668 121.204 176.223C120.612 175.777 120.149 175.145 119.815 174.324C119.487 173.504 119.323 172.549 119.323 171.459C119.323 170.369 119.487 169.414 119.815 168.594C120.149 167.773 120.612 167.141 121.204 166.695C121.796 166.244 122.476 166.016 123.243 166.01ZM123.243 167.24C122.733 167.246 122.279 167.425 121.881 167.776C121.488 168.122 121.184 168.614 120.967 169.253C120.75 169.886 120.642 170.621 120.642 171.459C120.642 172.297 120.75 173.035 120.967 173.674C121.184 174.307 121.488 174.796 121.881 175.142C122.279 175.487 122.733 175.66 123.243 175.66C123.747 175.66 124.195 175.487 124.588 175.142C124.986 174.796 125.294 174.307 125.511 173.674C125.733 173.035 125.845 172.297 125.845 171.459C125.845 170.621 125.733 169.886 125.511 169.253C125.294 168.614 124.989 168.122 124.597 167.776C124.204 167.425 123.753 167.246 123.243 167.24ZM148.907 178.42H134.599V177.26H138.149V173.041C137.47 172.689 136.942 172.238 136.567 171.688C136.192 171.131 136.005 170.504 136.005 169.807C136.005 169.01 136.248 168.31 136.734 167.706C137.221 167.097 137.895 166.625 138.756 166.291C139.623 165.957 140.61 165.787 141.718 165.781C142.825 165.787 143.81 165.957 144.671 166.291C145.538 166.625 146.215 167.097 146.701 167.706C147.188 168.31 147.431 169.01 147.431 169.807C147.431 170.492 147.249 171.11 146.886 171.661C146.522 172.206 146.013 172.654 145.356 173.006V177.26H148.907V178.42ZM141.718 166.924C140.868 166.918 140.112 167.035 139.45 167.275C138.788 167.516 138.27 167.855 137.895 168.295C137.525 168.729 137.341 169.232 137.341 169.807C137.341 170.381 137.525 170.891 137.895 171.336C138.27 171.775 138.788 172.118 139.45 172.364C140.112 172.604 140.868 172.725 141.718 172.725C142.562 172.725 143.314 172.602 143.977 172.355C144.639 172.109 145.157 171.767 145.532 171.327C145.907 170.888 146.095 170.381 146.095 169.807C146.095 169.232 145.907 168.729 145.532 168.295C145.157 167.855 144.639 167.516 143.977 167.275C143.314 167.035 142.562 166.918 141.718 166.924ZM143.968 177.26V173.542C143.271 173.724 142.521 173.814 141.718 173.814C140.909 173.814 140.171 173.727 139.503 173.551V177.26H143.968Z" fill="#9FACBD"/>
</svg>
